<svg enable-background="new 0 0 165.774 197.826" height="197.826" viewBox="0 0 165.774 197.826" width="165.774" xmlns="http://www.w3.org/2000/svg"><path d="m158.903 94.998-134.362-92.248c-7.14-4.9-16.889-3.07-21.789 4.046-4.899 7.137-3.078 16.895 4.05 21.798l112.648 77.838-90.363 49.234v-47.938h24.581l-52.333-68.164v50.134 19.201 73.252c0 5.54 1.857 10.669 6.637 13.49 2.461 1.459 4.688 2.185 7.441 2.185 2.593 0 4.935-.643 7.288-1.941l135.008-74.232c4.774-2.621 7.768-7.521 8.047-12.959.263-5.423-2.37-10.612-6.853-13.696" fill="#fff"/></svg>